<svg id="Capa_1" data-name="Capa 1" xmlns="http://www.w3.org/2000/svg" viewBox="0 0 19.01 19.35"><defs><style>.cls-1{fill:#18181b;}</style></defs><path class="cls-1" d="M21.68,11.65a9.42,9.42,0,0,1-9.84,9.74,9.43,9.43,0,0,1-9.16-9.13A9.47,9.47,0,0,1,11.66,2,9.4,9.4,0,0,1,21.68,11.65Zm-18,0a8.46,8.46,0,0,0,8.17,8.8,8.6,8.6,0,0,0,8.92-8.66,8.65,8.65,0,0,0-8.57-8.88A8.47,8.47,0,0,0,3.65,11.68Z" transform="translate(-2.67 -2.04)"/><path class="cls-1" d="M4,11.68a8.14,8.14,0,0,1,8.19-8.39,8.3,8.3,0,0,1,8.23,8.52,8.24,8.24,0,0,1-8.57,8.32A8.13,8.13,0,0,1,4,11.68ZM9.61,8.12a4.63,4.63,0,0,0-1.52,6.25,2.27,2.27,0,0,0,2.64,1.18,2.43,2.43,0,0,0,1.61-2.35,1.66,1.66,0,0,0-.95-1.61,1.21,1.21,0,0,0-1.9.73,1.79,1.79,0,0,0,.38.95,4.7,4.7,0,0,0,.84-.31c-.08.26-.07.64-.22.71a1.19,1.19,0,0,1-1,.09c-.72-.36-.93-1.4-.64-2.5S9.37,9.2,9.61,8.12Zm2.68,1.26c.2-.65.61-.89,1.09-.68a8.45,8.45,0,0,1,1.71,1.07c.55.43,1,1,1.58,1.45a4.22,4.22,0,0,0-4.34-4.28,2.13,2.13,0,1,0,.35,4.22,1.06,1.06,0,0,0,1-1.24C13.56,9.35,13.11,9.15,12.29,9.38ZM11,16.19l0,.1c.54.07,1.09.16,1.64.19a4.49,4.49,0,0,0,4.12-2.82A2.19,2.19,0,0,0,15.34,11a2.14,2.14,0,0,0-2.51,1.62,1.45,1.45,0,0,0,.26,1.05c.13.16.62.14.9,0,.46-.16.35-.6.29-1,0,0,.05,0,.09-.1.44.32.39.75.27,1.19a2.29,2.29,0,0,1-1.38,1.51C12.51,15.63,11.74,15.89,11,16.19ZM15.6,19c-1.06-.58-1.89-1.07-2.76-1.49a1.39,1.39,0,0,0-1.05-.09c-1,.44-1.91,1-2.86,1.49l0,.17,2.89.77a12.35,12.35,0,0,1,0-1.39,2.39,2.39,0,0,1,.35-.67c.13.21.34.4.38.62a11,11,0,0,1,0,1.43ZM8.74,4.39C9.89,5,10.82,5.55,11.8,6a1.23,1.23,0,0,0,.94,0c.9-.44,1.77-1,2.84-1.55l-3-.83a14.71,14.71,0,0,1,0,1.51c0,.19-.22.36-.33.54-.14-.19-.37-.36-.39-.56a12.47,12.47,0,0,1,0-1.53ZM5.09,15.08,5.27,15c.45-.84,1-1.66,1.33-2.53a2,2,0,0,0,.08-1.37c-.4-.95-.95-1.83-1.43-2.73l-.17,0-.78,2.9a13,13,0,0,1,1.57,0,.71.71,0,0,1,.48.43c.1.36-.15.5-.5.49s-.91,0-1.56,0Zm15-2.9H18.52c-.31,0-.57-.06-.55-.48s.28-.45.59-.45H20l-.76-2.87A17,17,0,0,0,17.73,11a1.58,1.58,0,0,0-.1,1.14c.43,1,1,1.9,1.59,3.05ZM10,5.67a7.7,7.7,0,0,1-.85-.47.87.87,0,0,0-1.28.09c-.55.55-1.15,1-1.64,1.63-.68.82-.58,1.53.26,2.34A6.44,6.44,0,0,1,10,5.67Zm0,12.09A6.55,6.55,0,0,1,6.42,14a4.54,4.54,0,0,0-.46.91c-.08.33-.22.83-.06,1a30.58,30.58,0,0,0,2.22,2.34.67.67,0,0,0,.58.13A14,14,0,0,0,10,17.76Zm7.87-3.7a6.46,6.46,0,0,1-3.48,3.68c1.52.92,1.56.92,2.78-.2a7.57,7.57,0,0,0,.77-.83C18.81,15.66,18.8,15.28,17.88,14.06ZM14.37,5.71A6.38,6.38,0,0,1,17.9,9.37c.9-1.26.9-1.59,0-2.66a7.56,7.56,0,0,0-.72-.78C16,4.77,15.92,4.76,14.37,5.71Z" transform="translate(-2.67 -2.04)"/></svg>