<svg id="Capa_5" data-name="Capa 5" xmlns="http://www.w3.org/2000/svg" viewBox="0 0 19.46 18.59"><defs><style>.cls-1{fill:#181818;}</style></defs><path class="cls-1" d="M4.61,11.4c1.38-.74,0-1.6.13-2.54l3.95,3c-.76-1.1-1.43-2.11-2.15-3.1a1,1,0,0,0-.65-.24c-.54,0-1.08,0-1.72,0l1.11-.92L3.11,6.82l.68-.18c1-.25,1.15-.7.46-1.43A13.46,13.46,0,0,0,2.58,3.89,2.58,2.58,0,0,1,2,3.35L4.88,4.52a3.61,3.61,0,0,0,.61.26c.3.08.73.26.88.13s.16-.59.25-1A4.18,4.18,0,0,1,8.1,7.18l-.51-.36c0,.06-.11.1-.11.13a26.75,26.75,0,0,0,1.14,3.79,12.43,12.43,0,0,0,1.89,2.34l-.44,1.79c-.26-.49-.43-.83-.61-1.16-.41-.76-.91-.88-1.61-.35a8.32,8.32,0,0,0-.77.68,4.3,4.3,0,0,1-.74.66l.43-1a1.63,1.63,0,0,0-1.66-2.33Z" transform="translate(-1.97 -3.35)"/><path class="cls-1" d="M16.07,6.82l-.49.31C15,6.79,16,4.6,17.13,3.9a1.3,1.3,0,0,0-.06.31c0,.23-.05.61.05.65a1,1,0,0,0,.75,0A35.54,35.54,0,0,1,21.43,3.6l-1,.65a1.84,1.84,0,0,0-.41.31c-.38.48-.73,1-1.1,1.49l1.33.85-2,.61,1.14,1c-.6,0-1.12,0-1.63,0a1.12,1.12,0,0,0-.76.28c-.73,1-1.4,2-2,2.89a3.23,3.23,0,0,0,1.69-1.34c.09-.18.37-.28.58-.4l1.67-1a2.92,2.92,0,0,1-.27.9c-.48.64-.34,1.12.38,1.55a2.3,2.3,0,0,0-2.23.75.85.85,0,0,0-.23,1.1c.25.48.45,1,.76,1.64-.61-.58-1.05-1.06-1.55-1.45-.8-.64-1.27-.52-1.75.39-.16.3-.3.6-.53,1.06-.12-.46-.21-.77-.29-1.08s-.15-.61-.23-.92a5.74,5.74,0,0,0,2.67-4C15.78,8.23,15.93,7.56,16.07,6.82Z" transform="translate(-1.97 -3.35)"/><path class="cls-1" d="M11.87,12.42c.18-.51.36-1,.55-1.53a.48.48,0,0,1,.18-.26,2.17,2.17,0,0,0,1-3,2,2,0,0,1-.06-.3,3,3,0,0,1-.37,5c-.3.16-.78.42-.77.61a10.36,10.36,0,0,0,.41,1.88c.06.23.26.47.22.68-.36,2.08-.76,4.15-1.16,6.22,0,.06-.07.11-.18.29-.28-1.52-.54-2.92-.81-4.32-.08-.45-.19-.91-.27-1.37a1.78,1.78,0,0,1,.26-1.79,1.44,1.44,0,0,0-.56-2.27A2.89,2.89,0,0,1,10,7.35a6.33,6.33,0,0,0-.21,1.41c0,.44.14,1.07.45,1.26a4.28,4.28,0,0,1,1.5,2.38Z" transform="translate(-1.97 -3.35)"/><path class="cls-1" d="M11.87,12.42l-.18,0c-.21-1.82-.48-3.64-.61-5.47,0-.49.39-1,.64-1.59a2.69,2.69,0,0,1,.66,2.49,19.92,19.92,0,0,0-.18,3.11A10.88,10.88,0,0,1,11.87,12.42Z" transform="translate(-1.97 -3.35)"/><path class="cls-1" d="M19,14.45l-1.86-2.14,1.4-.69Z" transform="translate(-1.97 -3.35)"/><path class="cls-1" d="M4.63,14.39,5,11.8a1.17,1.17,0,0,1,1.39.59Z" transform="translate(-1.97 -3.35)"/><path class="cls-1" d="M15.59,15.73V13.6l1.1,1.16Z" transform="translate(-1.97 -3.35)"/><path class="cls-1" d="M7.9,13.58,8,15.81,6.88,14.7Z" transform="translate(-1.97 -3.35)"/><path class="cls-1" d="M10.89,8.37c-.2-.91-1.26-1.57-.56-2.89l.77,2.83Z" transform="translate(-1.97 -3.35)"/><path class="cls-1" d="M13.25,5.45c.74,1.37-.42,2-.53,3l-.25-.07Z" transform="translate(-1.97 -3.35)"/></svg>