<svg id="Capa_3" data-name="Capa 3" xmlns="http://www.w3.org/2000/svg" viewBox="0 0 20.63 20.37"><defs><style>.cls-1{fill:#181818;}</style></defs><path class="cls-1" d="M18.5,5.7c-.39.91-.8,1.81-1.19,2.71a2,2,0,0,0,1.53,2.77A9.3,9.3,0,0,0,18.71,13c.15,1.24.24,1.26,1.56,1,0,.05,0,.11,0,.13a1.53,1.53,0,0,0,.08,2.5,1.16,1.16,0,0,0,.82.14c.51-.06,1-.2,1.59-.24-.82.93-1.87,1.69-1.88,3.17-.81-.71-1.55-1-2.46-.44-1.19.75-.27,1.69-.3,2.75C17.37,21,16.52,20.47,15.31,21c-1,.41-2.27,0-2.81,1.34-1.11-1.43-2.73-1.2-4.13-1.5-.31-.06-.76.38-1.11.64a4.77,4.77,0,0,0-.62.69c0-1,1-1.9-.1-2.74-.88-.63-1.29-.59-2.58.28,0-1.41-1-2.18-1.82-3.16l1,.17c1.22.23,1.18.2,1.81-.8a1,1,0,0,0-.22-1.54,1.21,1.21,0,0,1-.2-.2c.42-.06,1.15,0,1.25-.19A5.89,5.89,0,0,0,6.17,12a2.52,2.52,0,0,0-.28-.84A2,2,0,0,0,7.54,8.41,19.92,19.92,0,0,1,6.48,5.6L9.07,7.31l.08-1.57c.68.58,1,.19,1.37-.4.62-1.11,1.25-2.21,1.93-3.4.27.51.5,1,.76,1.45.39.7.81,1.38,1.21,2.07.3.51.63.9,1.27.19l.1,1.63,2.6-1.68Zm-7,11.58c-1.25-.41-1.46-.29-1.87.94-.06.19-.09.39-.14.58A1,1,0,0,0,10.19,20a6.34,6.34,0,0,0,3.68.25c1.49-.29,1.82-.93,1.25-2.32-.43-1-.59-1.11-1.6-.7,0,0-.09,0-.13,0,.54-1.46.38-1.91-1-2.79C11,15.55,10.9,15.8,11.53,17.28Zm-.19-4.54-.19-.11a3.21,3.21,0,0,0-1-2.24.8.8,0,0,0-.66-.14,2.27,2.27,0,0,0-.84,3.16c.41.53.91,1.38,1.61,1C10.77,14.21,11,13.33,11.34,12.74Zm2.18-.34c.27.71.46,1.27.71,1.8s.54.45.94.23a2.32,2.32,0,0,0,.41-4c-.18-.14-.72-.16-.82,0C14.29,11,13.91,11.74,13.52,12.4ZM12.43,6c-.53,1-1,1.78-1.43,2.61A.56.56,0,0,0,11,9.1c.46.78,1,1.54,1.49,2.38.5-.8,1-1.51,1.38-2.23a.77.77,0,0,0,0-.61C13.44,7.8,13,7,12.43,6Zm-4.29,10c-1.43.06-1.7.3-1.57,1.46,0,.35.28.92.5.95a1.6,1.6,0,0,0,1.26-.34,2.63,2.63,0,0,0,.61-2.77,1.89,1.89,0,0,0-.87-1c-.2-.1-.64.17-.9.37-.07.06.07.5.22.7A4.17,4.17,0,0,0,8.14,16.05Zm8.51,0a6,6,0,0,0,.78-.6c.16-.16.39-.44.34-.56s-.36-.55-.59-.58a1.18,1.18,0,0,0-.84.32,2.71,2.71,0,0,0,.45,3.71.91.91,0,0,0,1.5-.73C18.45,16.42,18.12,16.05,16.65,16.09Z" transform="translate(-2.14 -1.94)"/></svg>