<svg id="Capa_4" data-name="Capa 4" xmlns="http://www.w3.org/2000/svg" viewBox="0 0 17.22 17.61"><defs><style>.cls-1{fill:#181818;}</style></defs><path class="cls-1" d="M10.45,4.93l-.82.32c-.08-.26-.28-.55-.22-.76a.63.63,0,0,1,.91-.42,1,1,0,0,1,.52.63,1.61,1.61,0,0,1-.33,1,3.07,3.07,0,0,1-1,.54c-.81.38-1.1,1.41-.5,1.89a1,1,0,0,0,.94.08c.2-.15.2-.61.23-.93,0-.09-.23-.19-.47-.38,0,.27,0,.39,0,.46s-.24.4-.36.6c-.14-.21-.43-.44-.4-.6a1,1,0,0,1,.52-.68,1.64,1.64,0,0,1,1,.2c.16.06.23.32.36.52.06,0,.18-.1.18-.15a29,29,0,0,0,0-3.09c0-.52-.18-1,.14-1.44s.55-.37.81,0a1.81,1.81,0,0,1,.16,1.43,29.14,29.14,0,0,0,0,3.1s.11.11,0,0a4.82,4.82,0,0,1,1.29-.64.65.65,0,0,1,.73.8c0,.2-.32.35-.49.52-.09-.2-.2-.39-.28-.59s0-.16,0-.24L13.24,7c-.14.14-.39.3-.38.41.06.32.14.75.36.89.56.34,1.23-.25,1.14-.94a1.37,1.37,0,0,0-.89-1.14,5.33,5.33,0,0,1-.9-.43,1,1,0,0,1-.33-1.39.7.7,0,0,1,1-.33,1.09,1.09,0,0,1,.39.71c0,.12-.24.44-.32.42a2.65,2.65,0,0,1-.75-.35c0,.43.28.63.66.78a10,10,0,0,1,1.22.49,1.46,1.46,0,0,1,.84,1.72c0,.16,0,.32,0,.6a2.07,2.07,0,0,0,.5-.21,2.58,2.58,0,0,1,3-.14A2.52,2.52,0,0,1,20.1,10.8a3.78,3.78,0,0,1-1.3,2.64c-.6.49-1.3.85-1.9,1.33a1.67,1.67,0,0,0-.46.87c0,.1.29.29.43.42.14-.1.18-.12.2-.16l.4-.54c.11.11.33.26.31.34-.1.31-.18.76-.42.89a1.73,1.73,0,0,1-1.68-.17c-.1-.06-.19-.15-.37-.29a1.66,1.66,0,0,1-.85,1.79c-.05-.59.32-1.2-.17-1.68l-.14.09c.14,1.13-.67,1.77-1.31,2.49-.33.38-.59.72-.06,1.16-.67.37-.89-.22-1.28-.49-.37.24-.61.85-1.28.51.52-.46.32-.82-.05-1.18s-.52-.56-.76-.84C9,17.52,8.67,17,9,16.38c-.53,0-.53,0-.46,1.49a1.47,1.47,0,0,1-.84-1.52,14.2,14.2,0,0,1-1.7.34c-.51,0-.76-.34-.76-.81,0-.17.17-.34.26-.51.13.13.27.25.39.38a1.73,1.73,0,0,1,.14.36c.23-.17.56-.35.54-.42a2,2,0,0,0-.47-.92c-.66-.55-1.41-1-2.06-1.54a3.56,3.56,0,0,1-1.12-2.52A2.46,2.46,0,0,1,4.32,8.12a2.6,2.6,0,0,1,2.91.13,1.92,1.92,0,0,0,.48.2,2.11,2.11,0,0,0,.07-.27C7.65,6.72,8,6.23,9.44,5.77,9.91,5.62,10.44,5.52,10.45,4.93ZM11.56,15.6l.47-.47a3.07,3.07,0,0,1,.57-.57,3.14,3.14,0,0,0,1.46-1.42.93.93,0,0,1,.53-.42c.39-.1.69-.28.66-.7a.73.73,0,0,0-.69-.7,1.22,1.22,0,0,1-.53-.38c-.46-.45-.87-.94-1.36-1.35-.24-.2-.55-.22-.63-.65s-.92-.49-1-.12c-.13.61-.64.62-1,.91a6.68,6.68,0,0,0-1,1.15c-.17.25-.25.44-.62.48s-.52.34-.6.59.18.62.31.63c.67.05.82.58,1.13,1a3.53,3.53,0,0,0,.93.83c.34.21.78.26.84.8C11,15.34,11.31,15.43,11.56,15.6ZM7,13.73c0-.07,0-.1,0-.11-.75-.92-1.22-1.84-.2-2.89.08-.08,0-.45-.12-.56A1.56,1.56,0,0,0,4.88,10a1.43,1.43,0,0,0-.65,1.62A3.08,3.08,0,0,0,7,13.73Zm8.9,0a3.24,3.24,0,0,0,2.77-1.81,1.48,1.48,0,0,0-.32-1.69A1.6,1.6,0,0,0,16.62,10c-.59.26-.66.5-.28,1s.73,1.24.1,1.93A6,6,0,0,0,15.93,13.72Zm-4.42,3.86c-.37-.41-.74-.83-1.13-1.22a.47.47,0,0,0-.42-.13.49.49,0,0,0-.21.4,1.71,1.71,0,0,0,.28.81c.44.54.94,1,1.43,1.57a7.7,7.7,0,0,0,.91-.81,9.2,9.2,0,0,0,.88-1.35c.07-.14-.1-.41-.16-.62-.18.07-.41.09-.53.21C12.19,16.8,11.86,17.19,11.51,17.58ZM8.27,13.91a1.05,1.05,0,0,0-.08,1.31c.26.34,1,.23,1.32,0Zm5.24,1.3a1.18,1.18,0,0,0,1.32,0A1,1,0,0,0,14.75,14ZM8.22,10.28,9.49,9.16c-.39-.24-.94-.49-1.36-.06A.89.89,0,0,0,8.22,10.28Zm5.43-1.2,1.08,1.3c.25-.35.54-.88.15-1.28A.94.94,0,0,0,13.65,9.08Z" transform="translate(-2.89 -2.49)"/><path class="cls-1" d="M12.44,10.19c.71.16.71.16.43,2a5.28,5.28,0,0,0,.27-.53c.09-.21.14-.44.21-.66.5.41.49.46-.37,1.91a4.48,4.48,0,0,0,.52-.41,3.52,3.52,0,0,0,.33-.4c.15.53.12.63-.27.92-.54.39-1.1.76-1.64,1.17a.62.62,0,0,1-.85,0c-.53-.41-1.1-.77-1.62-1.2A3,3,0,0,1,9,12.22l.2-.15.64.9L10,12.8c-.34-.57-1.06-1.06-.44-1.9l.54,1.31c0-.62-.12-1.19-.11-1.75,0-.11.34-.22.54-.34l.36,1.9.15,0-.12-1.61c0-.41.14-.66.56-.66s.6.23.57.65a8.24,8.24,0,0,0,0,1.72Z" transform="translate(-2.89 -2.49)"/></svg>