<svg id="Capa_1" data-name="Capa 1" xmlns="http://www.w3.org/2000/svg" viewBox="0 0 18.92 13.85"><defs><style>.cls-1{fill:#18181b;}</style></defs><path class="cls-1" d="M11.15,19c-.16-.65-.28-1.21-.43-1.77a16.39,16.39,0,0,0-.46-1.7,2.49,2.49,0,0,1,.28-2l.36.48.19-.08-.33-1-.22,0-.55.81c-.19-.22-.48-.39-.49-.59s.32-.32.45-.52.22-.45.16-.51a2.77,2.77,0,0,0-.68-.42l-.15.11L9.17,11l.19-.17,1.29.92a1.41,1.41,0,0,0-.86-1.13.67.67,0,0,1-.3-1,2.39,2.39,0,0,0,.22-2.4c.36-.15.36-.15,1.1.65a3.63,3.63,0,0,1,0-1.31c.07-.19.6-.36.91-.33a1.43,1.43,0,0,1,1,.5c.13.27-.14.74-.24,1.15.55-.08.31-1.16,1.18-.7a1.65,1.65,0,0,0-.14.56,5.39,5.39,0,0,0,.26,1.62c.28.64.25.9-.31,1.37a3.43,3.43,0,0,0-.77,1l1.3-.91.18.17-.09.84L14,11.68l-.73.46a2.36,2.36,0,0,0,.44.54c.4.28.34.54-.29,1l-.51-.75c-.6.16-.51.61-.41,1.08l.35-.46a2.16,2.16,0,0,1,.29,2,11.67,11.67,0,0,0-.44,1.64c-.14.56-.26,1.13-.4,1.71L11.66,18Zm.64-10.29H11.6c0,.21,0,.43,0,.64v4.61c0,.18.06.41,0,.54-.61.82.18,1.5.11,2.26a10,10,0,0,0,.44-1.34,1.21,1.21,0,0,0,0-.46,11.61,11.61,0,0,1-.25-1.53C11.77,11.84,11.79,10.26,11.79,8.69Z" transform="translate(-2.26 -5.13)"/><path class="cls-1" d="M21.17,13.13a8,8,0,0,1-.67-.47A5.63,5.63,0,0,1,19,8c0-.44,0-.87-.47-.91a1.7,1.7,0,0,0-1,.42c-.18.13-.21.45-.36.65a4.35,4.35,0,0,1-.9,1,1.32,1.32,0,0,1-1.71-.11,1.72,1.72,0,0,1,.25-2c.55-.48,1.14-.92,1.71-1.38a2.74,2.74,0,0,1,2.81-.35,1.8,1.8,0,0,1,.94,1,3.87,3.87,0,0,1,.08,1.82A5.87,5.87,0,0,0,21.17,13.13Z" transform="translate(-2.26 -5.13)"/><path class="cls-1" d="M2.26,13.13a6,6,0,0,0,.79-4.87,3.67,3.67,0,0,1-.11-.74c0-.77,0-1.6.8-2a2.64,2.64,0,0,1,2.76,0,24.32,24.32,0,0,1,2,1.5,1.58,1.58,0,0,1,.44,1.86,1.48,1.48,0,0,1-1,.53A1.83,1.83,0,0,1,6.26,8.35a2.84,2.84,0,0,0-.54-1,1,1,0,0,0-.88-.25,1,1,0,0,0-.42.8c0,1.69-.12,3.31-1.4,4.6C2.79,12.73,2.51,12.92,2.26,13.13Z" transform="translate(-2.26 -5.13)"/><path class="cls-1" d="M14.1,14c.64-1.42.53-3.22,2.19-4.16-.12.94.25,1.58,1.38,1.94L14.24,14.2Z" transform="translate(-2.26 -5.13)"/><path class="cls-1" d="M7.05,9.86c1.7,1,1.55,2.79,2.23,4.19l-.12.17L5.73,11.84C6.75,11.43,7.21,10.85,7.05,9.86Z" transform="translate(-2.26 -5.13)"/><path class="cls-1" d="M6.46,13.74l.24-.49,2,1.09L7.55,15Z" transform="translate(-2.26 -5.13)"/><path class="cls-1" d="M14.65,14.33l2-1.09.24.52L15.8,15Z" transform="translate(-2.26 -5.13)"/></svg>